<svg width="17" height="18" viewBox="0 0 17 18" fill="none" xmlns="http://www.w3.org/2000/svg">
<path fill-rule="evenodd" clip-rule="evenodd" d="M8.40824 8.4958C10.0492 8.4958 11.3794 7.07687 11.3794 5.32653C11.3794 3.57619 10.0492 2.15727 8.40824 2.15727C6.7673 2.15727 5.43705 3.57619 5.43705 5.32653C5.43705 7.07687 6.7673 8.4958 8.40824 8.4958ZM8.40824 10.2245C10.9442 10.2245 13.0001 8.0316 13.0001 5.32653C13.0001 2.62146 10.9442 0.428574 8.40824 0.428574C5.87224 0.428574 3.81641 2.62146 3.81641 5.32653C3.81641 8.0316 5.87224 10.2245 8.40824 10.2245Z" fill="#EEF1F4"/>
<path fill-rule="evenodd" clip-rule="evenodd" d="M9.03491 10.6071H7.16862C4.1977 10.6071 1.78931 12.9576 1.78931 15.8571C1.78931 15.9163 1.83846 15.9643 1.89909 15.9643H14.3044C14.3651 15.9643 14.4142 15.9163 14.4142 15.8571C14.4142 12.9576 12.0058 10.6071 9.03491 10.6071ZM7.16862 9C3.28824 9 0.142578 12.07 0.142578 15.8571C0.142578 16.8039 0.928994 17.5714 1.89909 17.5714H14.3044C15.2745 17.5714 16.0609 16.8039 16.0609 15.8571C16.0609 12.07 12.9153 9 9.03491 9H7.16862Z" fill="#EEF1F4"/>
</svg>
